<svg xmlns="http://www.w3.org/2000/svg" viewBox="0 0 3195.7 2000" xml:space="preserve"><path d="M368.9 1712.18S31.68 1353.68 261.1 936.1c176.99-322.14 605.15-264.74 824.84-128.48 93.57 58.03 294.61-48.4 549.57-371.6 295.99-375.19 1441.92-146.27 1244.01 570.6-95.77 346.91 291.47 359.52 94.16 706.3z" fill="#ebf3fa"/>
  <path
    d="M2769.13 1709.31H1913.6c-85.63 0-155.05-69.42-155.05-155.06V813.57c0-78.64 15.42-154.97 45.83-226.88a581 581 0 0 1 124.87-185.23 581 581 0 0 1 185.22-124.86c61.97-26.21 47.15-42.1 114.33-45.76 10.78-.6 101.68-.08 112.56-.08 78.64 0 154.98 15.42 226.89 45.84a581 581 0 0 1 185.22 124.86 581 581 0 0 1 124.87 185.23c30.41 71.9 45.83 148.24 45.83 226.88v740.68c0 85.64-69.42 155.06-155.05 155.06m-828.44-864.85h801.36v-30.89c0-220.94-179.74-400.68-400.68-400.68S1940.7 592.63 1940.7 813.57z"
    fill="#4f75ba"/>
  <path
    d="M2665.92 1709.31h-855.51c-85.64 0-155.06-69.42-155.06-155.06V813.57c0-78.64 15.42-154.97 45.84-226.88a581 581 0 0 1 124.86-185.23 581 581 0 0 1 185.23-124.86c71.9-30.42 148.24-45.84 226.88-45.84s154.98 15.42 226.89 45.84a581 581 0 0 1 185.22 124.86 581 581 0 0 1 124.87 185.23c30.41 71.9 45.84 148.24 45.84 226.88v740.68c0 85.64-69.42 155.06-155.06 155.06m-828.44-864.85h801.37v-30.89c0-220.94-179.75-400.68-400.69-400.68s-400.68 179.74-400.68 400.68z"
    fill="#739af0"/>
  <path
    d="M2310.28 1134.73c0-18-6.6-34.44-17.5-47.07-10.01-14.84-30.7-25.04-54.62-25.04s-44.6 10.2-54.6 25.04a71.8 71.8 0 0 0-17.51 47.07 72.1 72.1 0 0 0 50.58 68.84v109.22c0 8.8 9.64 15.95 21.53 15.95s21.54-7.14 21.54-15.95v-109.22a72.1 72.1 0 0 0 50.58-68.84"
    fill="#4f75ba"/>
  <path
    d="M1279.67 1042.47c-1.37 9.26-11.94 19.98-23.22 28.02-12.15 8.65-17 17.53-21.31 21.97a76 76 0 0 1-2.58 2.82l-12.96-15.07s.22-.14.6-.57c2.9-3.16 10.25-10.95 15.15-19.93 10.74-19.67 25.75-22.57 25.75-22.57s14.36 2.12 18.57 5.33"
    fill="#ffb27d"/>
  <path
    d="m610.16 1231.6 8.75 7.1s23.97-8.59 29.37 19.88c0 0 1.44 12.14-6.24 12.16-7.69.02-4.52-1.33-15.4-1-10.89.31-19.91-5.43-21.5-14.26l-5.21-7.48z"
    fill="#ea8e50"/>
  <path
    d="M609.16 1246.86c7-7.3 6.43-12.7 6.43-12.7s-80.92-66.24-89.13-71.64c-5.59-3.68-61.97-57.69-93.04-88.72-14.94-14.92-30.93-9.77-50.51-4.15l-16.13 4.62c-19.47 5.59-24.53 32.82-8.56 46.06 45 37.27 119.85 79.19 133.86 88 34.77 21.87 102.83 47.86 102.83 47.86s8.25-3.07 14.25-9.33"
    fill="#992525"/>
  <path
    d="M701.5 1653.88s19.64 14.71 49.74 6.94c0 0 24.26-5.53 29.58 6.57 0 0-37.21 18.9-46.63 24.07-7.1 3.9-14.5 10.05-19.73 14.8a9.76 9.76 0 0 1-14.13-1.09q-2.47-3.01-5.56-7.19c-5.74-7.77-19.1-32.89-19.1-32.89z"
    fill="#233862"/>
  <path
    d="M713.04 1646.4s-11.96 27.58-39.56 22.5c0 0-56.33-46.5-94.96-94.83-12.55-15.7-23.23-31.57-29.51-46.11-25.62-59.32-94.77-147.79-138.74-192.63l110-39.79s35.23 70.88 82.11 157.93c33.79 62.73 73.6 133.86 110.65 192.94"
    fill="#2b478b"/>
  <path
    d="m602.38 1453.47-23.86 120.6c-12.55-15.7-23.23-31.57-29.51-46.11-25.62-59.32-94.77-147.79-138.74-192.63l110-39.79s35.23 70.88 82.11 157.93m-89.91 216.41s-1.2 22 25.47 24.94c0 0 15.24.08 15.29 14.08l-77.52.25s-2.25-5.65-2.8-17.75c-.42-9.29 9-33.58 9-33.58z"
    fill="#233862"/>
  <path
    d="M484.2 1295.54s49 53.85 80.1 150.85c16.93 52.78-31.02 185.48-40.37 231.6 0 0-32.16 2.72-54.15-5.78 0 0-1.67-95.23 11.19-168.63 7.2-41.07-64.52-87.85-95.86-162.07-21.32-50.5 4.62-49.64 36.5-50.85z"
    fill="#2b478b"/>
  <path
    d="M427.62 1055.31c-27.26 15.4-83.07 1.2-83.07 1.2s22.66-25.91 12.36-67.65l21.4 10.87 23 11.68s1.49 7.37 2.52 20.61q.41 5.13.66 11.38a72 72 0 0 1 23.13 11.91"
    fill="#ffb07b"/>
  <path
    d="M527.6 1292.76c0 4.8-5.52 7.09-6.7 7.32-11 2-41.7 13.95-69.36 16.7-23.29 2.43-44.9.11-68.66-4.66-3.15-.63-10.54-2.62-11.06-5.63-.65-3.3-91.63-185.46-20.9-263.71 1.65-1.84 15.61 1.47 28.38 4.5 11.8 2.8 22.6 1.24 32.26-2.64l11.97 6.3c14.7 8.2 42.53 37.3 45.78 60.14 1.66 11.62 8.3 20.22 10.22 30.44a646 646 0 0 0 6.66 31.22 533 533 0 0 0 12.87 45 477 477 0 0 0 13.1 34.47c5.22 12.31 9.62 21.5 12.38 28.55 1.94 4.96 3.06 8.85 3.06 12"
    fill="#bc3f3f"/>
  <path
    d="M524.54 1280.76c-128.42-60.5-172.9-176.69-172.9-176.69s104.34 38.5 130.08 48.51a617 617 0 0 0 4.47 20.16 533 533 0 0 0 12.87 45 477 477 0 0 0 13.1 34.47c5.22 12.3 9.63 21.5 12.38 28.55"
    fill="#992525"/>
  <path
    d="M687.45 1250.91h-70.9c-68 0-123.33-55.33-123.33-123.33v-231c0-68 55.33-123.34 123.33-123.34h70.9c68 0 123.33 55.33 123.33 123.34v231c0 68-55.32 123.33-123.33 123.33m-70.9-404.82a50.54 50.54 0 0 0-50.48 50.49v231a50.54 50.54 0 0 0 50.48 50.48h70.9a50.54 50.54 0 0 0 50.48-50.48v-231a50.54 50.54 0 0 0-50.48-50.49z"
    fill="#f99746"/>
  <path d="M1430.97 1054.63H780.82v-85.1h650.15a42.55 42.55 0 1 1 0 85.1" fill="#f99746"/>
  <path
    d="M1383.54 1238.4a34.15 34.15 0 0 1-34.15-34.15V1037.5h68.3v166.76a34.15 34.15 0 0 1-34.15 34.15"
    fill="#f99746"/>
  <path
    d="m599.67 1245.7 11.1 4.06s22.22-15.71 36.06 9.85c0 0 5 11.16-2.92 13.58-7.92 2.43-5.04.15-16.17 3.85s-22.1 1.04-26.31-6.91l-7.55-5.54z"
    fill="#ffb07b"/>
  <path
    d="m608.8 1261.39 5.98-15.56s-83.85-68.34-92.4-74.2c-5.82-4-63.78-47.33-92.04-81.1a59.1 59.1 0 0 0-57.5-19.92l-17.6 3.7c-21.25 4.45-28.16 31.36-11.67 45.49 46.44 39.8 124.76 85.98 139.36 95.59 36.25 23.84 116.44 57.25 116.44 57.25s6.22-2.84 9.44-11.25"
    fill="#bc3f3f"/>
  <path
    d="M403.83 1032.02c-26.8 1.5-44.24-20.63-44.24-20.63s12.12-6.71 18.73-11.66l23 11.68s1.48 7.37 2.51 20.61"
    fill="#ea8e50"/>
  <path
    d="M415.26 1004.5s-40.63 29.15-58.4 3.57-34.97-39.04-9.78-58.73c25.19-19.7 37.06-13.48 45.07-6.38s33.22 53.3 23.1 61.54"
    fill="#ffb07b"/>
  <path
    d="M396.44 919.86c-1.46-9.83-4.74-16.75-4.74-16.75s-2.55 10.56-21.85 9.1c-19.3-1.45-49.88 1.9-60.08 23.9a47 47 0 0 0-1.74 4.3c-1.84-4.87-2.29-12.18-2.29-12.18-3.67 9.47 0 21.31 0 21.31l-.15 1.04c-4.26 3.6-7.83 14.8-7.83 14.8 1.28-3.13 4.42-5.16 7.21-6.42-.09 17.11 6.85 33.84 19.03 38.82 17.82 7.29 17.67 1.73 35.59 13.61 0 0 4.8-5.96 1.53-9.96-3.28-4.01-15.66-9.84-8.74-15.66s9.46.73 12.01-3.28-10.2-15.66 6.2-26.58c16.38-10.93 27.3-26.22 25.85-36.05"
    fill="#233862"/>
  <path
    d="m1107.98 1686.13-14.97 5.57s-65-90.17-73.01-169.5c-1.43-14.16-.95-27.88 2.14-40.55l-1.75-10.05c-.51-2.99-1.15-6.6-1.87-10.72-2.11-12.11-5.02-28.68-8.35-47.55-7.64-43.42-17.55-98.92-25.25-139.72l4.03-1.3 43.64-14.07 9.01-28.64 32.5-8.56s7.25 14.2 13.74 81.27c1.2 8.8 2.29 18.5 3.1 29.03 2.54 32.11 2.72 71.94-3.09 117.49a614 614 0 0 1-5.7 36.06c-1.71 9.06-1.97 21.42-1.25 35.6 3.27 64.85 27.08 165.64 27.08 165.64"
    fill="#bc3f3f"/>
  <path
    d="m1090.94 1331.34-70.55 140.26c-.51-2.99-1.15-6.6-1.87-10.72-2.11-12.11-5.02-28.68-8.35-47.55-7.65-43.42-17.56-98.92-25.25-139.72l4.03-1.3 43.63-14.07 9.02-28.64 32.5-8.56s7.25 14.2 13.74 81.27a508 508 0 0 1 3.1 29.03"
    fill="#992525"/>
  <path
    d="m1059.9 1239.04-1.63-14c-27.36 7.26-100.48-20.31-100.48-20.31s-26.5 23.3-23.02 79.16c1.7 27.26 4.8 143.11 8.04 177.4a1044 1044 0 0 0 2.62 24.82 5 5 0 0 1-.8 3.04 161 161 0 0 0-11.95 25.16c-31.81 84.77 4.9 189.16 4.9 189.16l9.52-3.84s20.9-116.18 37.87-167.5c2.88-8.7 5.64-15.55 8.17-19.64 7.38-11.9 14.23-31.37 20.45-54.52 11.75-43.76 21.2-100.7 27.5-144.64.87.04 18.82-74.29 18.82-74.29"
    fill="#bc3f3f"/>
  <path
    d="M1226.85 1065.24c8.27 3.3 16.36 9.78 24.36 17.86 0 0-46.67 81.4-73.53 93.24-14.75 6.5-60.89-42.8-70.42-70.43-2.33-6.75 6.27-29.33 3.45-34.08a47 47 0 0 1-6.27-17.66c-.18-.8-.35-1.6-.3-2.48-.88-8.4.85-14.12.85-14.12 1.07-2.74 4.09-3.92 8.57-3.85h1.59c24.17 14.22 55.92 84.06 61.16 85.7 13.66-17.3 50.54-54.18 50.54-54.18"
    fill="#2c3a64"/>
  <path
    d="M1112.18 1069.15c-8.59 3.99-18.96 6.7-31.51 7.38-47.05 2.58-57.73-38.66-59.67-66.03 6.78-2.45 12.72-2.22 16.14-2.04 3.34.18 6.82.53 9.7.88 5.75-3 16.09-17.6 22.06-42.03l2.03.94 33.94 15.96s-3.6 11.04-6.26 21.61c-2.08 8.27-3.57 16.26-2.33 18.5 2.68 1.09 4.28 1.77 4.28 1.77l.01.04c.35.87 7.73 19.67 11.61 43.02"
    fill="#ffb27d"/>
  <path
    d="M1123.95 1100.02q-.54 1.4-1.17 2.8c-11.92 25.66-33.97 131.96-33.97 131.96 3.14 19.1-143.63-3.75-144.01-21.15-5.17-18.46 18.34-48.1 31.6-62.97a42 42 0 0 0 4.45-5.99 42 42 0 0 0 6-17.55c2.61-24.66-7.08-81.55-4.47-92.54 1.03-4.3 20.46 20.29 22.78 17.82 2.56-2.69 4.16-5.44 4.34-8.54q.19-3.53-.18-7.16a64 64 0 0 0-.43-3.41c-1.83-11.94-24.66-6.84-24.66-6.84 8.36-20.14 52.92-18.54 52.91-17.99l-.04 3.29c-.07 8.2 0 29.25 2.63 33.23 3.29 4.96 63.42 26.7 66.6 19.97 3.12-6.62-5.44-37.65-5.76-38.82l-.01-.04c6.58 2.67 14.59 7.62 14.59 7.62 7.55 15.14 18.18 41.42 8.8 66.31"
    fill="#2b478b"/>
  <path
    d="M1083.44 878.3c-.07-2.05-1.65-24.03-35.13-25.17 0 0 16.47 1.96 19.31 9.2 0 0-11.2-8.95-20.34-6.07-9.12 2.88-14.49 18.87-14.54 24.13s5.02 22.22 10.81 23.66c2.2.54 4.72.4 7.02 0a79 79 0 0 0-4.5 8.03c-13.36 27.42.42 54.22 11.73 51.26 7.25-1.9 9.3 10.48 9.3 10.48l70.47-57.05s-25.88-53.55-54.13-38.48"
    fill="#bc3f3f"/>
  <path d="M1104.88 984.21s-3.61 11.04-6.27 21.62c-19.85-5.54-25.87-26.4-27.68-37.58z"
    fill="#ed985f"/>
  <path
    d="M1109.05 995.9s-47.47-10.99-40.17-40.45c7.3-29.45 6.08-50.71 36.7-44.94s33.7 18.46 33.66 28.89-17.65 58.6-30.19 56.5"
    fill="#ffb27d"/>
  <path
    d="M1141.9 922.67c-5.1-10.68-11.1-10.1-14.86-8.21-22.3-20.64-44.18-3.78-44.18-3.78-8.43 20.34-26.68 28.66-26.68 28.66s7.3 7.46 28.43 7.3c6.46-.05 12.95-3.02 18.86-7.1C1092.07 951 1078.7 958 1078.7 958c26.46-5.06 44.2-35.7 46.02-38.95 2.25 3.31 6.53 10.36 6.9 16.3.48 8.1-2.3 23.8 2.33 24.39 0 0 15.6-21.06 7.95-37.07"
    fill="#bc3f3f"/>
  <path
    d="M992.96 1711.25h-75.38s-1.81-11.49 2.13-20.2c3.77-8.37 9.68-12.17 8.26-22.29 4.8 4.93 12.6 10.46 23.5 9 1.34 2.16 8.62 13.74 13.08 16.95 4.93 3.54 26.9 2.27 28.41 16.54m161.86 0h-75.39s-2.81-12.02 2.13-20.2c4.39-7.24 2.7-11.36-.54-17.35 3.42 1.4 7.84 2.67 12.7 2.39 3.76-.22 7.73-1.92 11.21-3.95 3.24 3.7 17.14 19.45 21.48 22.57 4.92 3.54 26.9 2.27 28.4 16.54"
    fill="#233862"/>
  <path fill="#f99746" d="M1257.36 1054.63h114.74l-6.38-44.5-102.44 4.11z"/>
  <path
    d="M1277.5 969.53c-5.34 5.33-5.22 22.4-16.5 30.45-12.14 8.65-17 17.53-21.31 21.97a76 76 0 0 1-2.57 2.82l-12.96-15.07s.21-.14.6-.57c2.9-3.16 10.25-10.96 15.14-19.93 10.74-19.67 25.76-22.57 25.76-22.57s7.63-.31 11.85 2.9"
    fill="#ffb27d"/>
  <path
    d="m1232.09 997.85 19.12 21.4s-51.1 44.49-61.77 53.73c-7.59 6.45-14.74 11.71-20.57 14.73-.58.31-1.1.53-1.78.8-15 6.56-47.4 5.83-79.77 1.04-4.48-.65-8.9-1.4-13.21-2.1-15.96-2.78-31.15-6.43-43.67-10.61-7.5-2.43-14.14-5-19.24-7.73-1.81-.93-3.53-1.8-5.04-2.82-25.31-15.17-24.09-29.25-23.6-34.31.47-5.06 4.12-11.74 12.57-14.48 20.09-6.52 87.48 19.45 97.4 21.33 5.96 1.26 21.47 6.75 26.68 7.7 9.99 1.79 18.23 2.94 23.87 2.96 3.65.04 10.1-2.22 17.89-5.66 13.6-5.95 71.12-45.98 71.12-45.98"
    fill="#253d78"/>
  <path
    d="M1239.6 1062.4c-1.6-2.63-1.75-6.86-1.75-6.86 2.2-5.67 7.1-12.04 8.92-13.3 1.82-1.25 4.21-4.32 4.78-2.27s-2.16 12.75-5.35 16.96-6.6 5.46-6.6 5.46"
    fill="#ffb27d"/>
  <path d="M2376.3 805.66c16.08 28 36.31 38.8 36.31 38.8h84.17s-132.75-60.15-120.48-38.8"
    fill="#ed7d2b"/>
  <path
    d="M2435.94 1023.7c2.2 2.52 4.09 2.38 3 5.38l-.5 1.5c-2 5.55-5.8 9.44-13.5 15.63-.98.8-1.99 1.45-2.75 2.12-.2.18-1.56.45-1.75.63-.15.13-1.35 2.6-1.5 2.74-7.18 6.62-5.72 4.7-18.62 18.13-14.72 15.31-14.29 13.73-17.17 12.33-2.44-1.18-3.45-4.03 2.04-13.16l.8-1.33 2.18-3.67c6.44-10.98 4.78-16.13 3.26-32.48-1.24-13.28-20.67-74.21-20.67-74.21l28.2-4.86s8.5 48.52 17.85 55.99c5 3.98 10.6 4.03 15.41 6.98q.52.3 1 .63c2.74 1.82.52 5.14 2.72 7.66"
    fill="#ffb27d"/>
  <path
    d="M2440.94 1022.26c2.2 2.5 2.47 5.32 1.39 8.32l-.02.04c-2.46 5.54-8.93 11.7-16.37 17.87q-1.46 1.2-2.6 2.24l-.59.53-.45.4c-7.19 6.63-4.48 8.15-17.39 21.58-14.71 15.31-24.84 15.59-27.73 14.2-2.43-1.2 2.52-9.32 8-18.44a63 63 0 0 0 26.24-19.33c8.86-11.3 14.77-25.83 20.8-34.25q.52.3 1 .63c2.74 1.82 5.52 3.69 7.72 6.2"
    fill="#bc3f3f"/>
  <path
    d="M2208.32 1002.96c-1.75 8.7-7.4 6.26-21.26 2.87s-10.64-.06-30.37-2.25-21.52-5.31-22.12-8.25c-.54-2.6 3.58-4.36 14.04-5.57q1.97-.21 3.95-.47c11.8-1.48 20.45-9.1 31.18-15.35 10.16-5.93 25.31-30.07 25.31-30.07l27.06 2.14s-14.2 21.56-19.7 30.94c-3.22 5.52-3.05 12.8-2.65 18.44.21 3.06-4.83 4.5-5.45 7.57"
    fill="#ffb27d"/>
  <path
    d="M2185.54 1008.5c-13.86-3.38-10.56.65-30.3-1.54-19.72-2.18-25.7-9.54-26.3-12.47-.54-2.6 9.21-3.52 19.67-4.73l.1.2s11.83 8.4 28.25 8.79c13.38.32 27.56-3.51 36.8-3.36.21 3.06.41 6.19-.2 9.25-1.75 8.7-14.15 7.25-28.02 3.87"
    fill="#bc3f3f"/>
  <path
    d="m2317.24 831.64 25.3 68.06 33.02 88.86s8.96.87 17.54-1.6c7.9-2.28 16.97-8.26 16.97-8.26s-9.17-95.42-26.28-150.19c-4.38-14.06-9.3-25.43-14.72-31.83-26.51-31.34-51.83 34.96-51.83 34.96"
    fill="#ed7d2b"/>
  <path
    d="M2342.96 723.55c16.57-5.35 63.83 1.52 111.3 10.8l9.94-16.39 102.55-8s33.78 75.01 15.31 122.85c-4.5 11.65-19.18 11.64-19.18 11.65h-80.52c-51 0-107.93-35.06-115.3-36.53-12.05-2.41-16.87 21.7-28.92 47-12.06 25.32-113.31 112.12-113.31 112.12s-15.57.15-22-2.26c-6.91-2.6-9.44-5.96-9.44-5.96s112.2-223.23 149.57-235.28"
    fill="#f99746"/>
  <path
    d="M2464.8 576.74c36.53 20.11 110.6 61.8 110.99 61.52 0 0 27.23 10.26 42.67 0 25.75-17.1 39.56-63.11-7.53-102.71-23.48-19.75-40.16-24.56-42.7-56.1-1.37-17.1-24.76-73.57-63.62-68.35a59 59 0 0 1-9.8.65 36.4 36.4 0 0 0-19.7 5.09c-22 13.1-65.04 152.12-10.3 159.9"
    fill="#233862"/>
  <path
    d="M2495.42 559.63c-.17.1 17.96 6.3 30.08.93 11.4-5.04 20.04-23.8 19.87-23.81-5.18-.24-10.88-4.78-15.26-34.54l-2.21.8-37.14 13.36s2.69 11.92 4.43 23.26c1.47 9.53 2.25 18.65.22 20"
    fill="#ffb27d"/>
  <path d="M2490.76 516.37s2.69 11.92 4.43 23.26c21.33-3.84 29.7-25.1 32.7-36.62z" fill="#ed975d"/>
  <path
    d="M2485.23 528.2s50.81-6.82 46.08-38.4-1.37-53.73-34.01-50.7c-32.64 3.01-37.13 16-38.1 26.93-1 10.92 12.69 63.13 26.03 62.17"
    fill="#ffb27d"/>
  <path
    d="M2461.04 448.72s32.53 28.03 54.66 30.3c22.12 2.25 30.5-4.85 30.5-4.85s-13.04-10.83-20.9-28.3a15.6 15.6 0 0 0-12.82-9.17c-15.8-1.37-45.74-1.99-51.44 12.02"
    fill="#233862"/>
  <path
    d="M2481.38 446.21s-10.89 10.52-14.31 18.33c-3.31 7.53-4.3 25.54-1.67 32.7 0 0-16.95-32.98-7.35-49 10.18-16.98 23.33-2.03 23.33-2.03"
    fill="#233862"/>
  <path
    d="M2452.63 634.48c1.53 102.86.42 81.36 11.67 91.12 2.71 2.35 10.33 3.76 20.36 4.42 31.54 2.1 86.98-3.1 89.1-8.93 7.27-20.17 2.13-26.44 8.2-57.31q.95-4.92 2.34-10.71c5.06-21.21 9.98-28.42-7.97-62.5-16.28-30.85-33.2-55.9-34.72-55-42.95 25.5-46.42 4.07-46.42 4.07s-43.32 44.67-42.56 94.84"
    fill="#bc3f3f"/>
  <path
    d="m2342.54 899.7 33.02 88.86s8.96.87 17.54-1.6c7.9-2.28 16.97-8.26 16.97-8.26s-9.17-95.42-26.28-150.19z"
    fill="#f99746"/>
  <path
    d="M2495.19 539.63s-44.2 7.5-49.39 26.53l-35.73 130.9s22.47 4.04 32.85-6.34 36.12-96.3 36.12-96.3z"
    fill="#bc3f3f"/>
  <path
    d="M2484.67 730.02c31.53 2.1 86.98-3.1 89.08-8.93 7.28-20.17 2.14-26.44 8.21-57.31l-15.2-42.84s2.5 47.7-11.56 60.25-57.6 24.22-64.43 34.7c-3.3 5.03-5.47 10.08-6.1 14.13"
    fill="#992525"/>
  <path
    d="M2520.8 709.96s-31.12-6.93-36.14-4.17-17.29 12.82-18.82 16.32 11.18-2.66 15.31-3.77c2.68-.72 9.73 1.73 13.22 2.9 14.68 4.89 23.68 2.37 23.68 2.37z"
    fill="#ffb27d"/>
  <path
    d="M2541.64 535.55s41.78 2.57 56.24 22.75c20.36 28.4 60.75 149.4 37.6 165.55-26.06 18.18-118.63 4.75-118.63 4.75s-3.08-14.4 1.2-21.36 73.94-18.22 77.15-21.43-40.18-62.69-40.18-72.33-13.38-77.93-13.38-77.93"
    fill="#bc3f3f"/>
  <path
    d="M2483.16 714.45s-6.52 8.4-8.66 9.41-3.52.75-3.52.75l4.4-7.9zm1.51-8.66-18.96 9.2s.8 1.32 3.14 1.22 8.22-2.26 8.22-2.26z"
    fill="#ffb27d"/>
  <path fill="#163560" d="M2474.5 736.75h-149.94l-45.1-112.17h149.71z"/>
  <path fill="#11294a" d="M2322.8 732.38h198v4.37h-196.24z"/>
  <path
    d="M2362.41 680.66c-1.13-3.94 1.15-7.14 5.1-7.14s8.05 3.2 9.18 7.14c1.13 3.95-1.15 7.14-5.1 7.14s-8.05-3.2-9.18-7.14"
    fill="#fff"/>
  <path
    d="M3072.2 1715.78H198.83a3.83 3.83 0 0 1-3.82-3.82c0-2.1 1.72-3.82 3.82-3.82H3072.2c2.1 0 3.82 1.72 3.82 3.82s-1.72 3.82-3.82 3.82"
    fill="#2e3552"/></svg>
