<?xml version="1.0" encoding="UTF-8"?>
<!DOCTYPE svg  PUBLIC '-//W3C//DTD SVG 1.1//EN'  'http://www.w3.org/Graphics/SVG/1.1/DTD/svg11.dtd'>
<svg width="800px" height="800px" fill="none" viewBox="-6 -6 36 36"
  xmlns="http://www.w3.org/2000/svg">
  <path d="m14 4c0 1.1046-0.8954 2-2 2s-2-0.89543-2-2 0.8954-2 2-2 2 0.89543 2 2z" stroke="#3f51b5"
    stroke-width="1.5"/>
  <path
    d="m6.0478 10.849 0.23718-0.7115-0.23718 0.7115zm2.1753 0.7251-0.23717 0.7115 0.23717-0.7115zm0.79373 1.6819-0.70001-0.2692 0.70001 0.2692zm-1.2468 3.2417 0.70001 0.2692-0.70001-0.2692zm10.182-5.6487-0.2372-0.7115 0.2372 0.7115zm-2.1753 0.7251 0.2372 0.7115-0.2372-0.7115zm-0.7937 1.6819 0.7-0.2692-0.7 0.2692zm1.2468 3.2417-0.7 0.2692 0.7-0.2692zm-5.8058 1.2597 0.6512 0.3721-0.6512-0.3721zm1.5758-2.7577 0.6512-0.3721c-0.1335-0.2336-0.3821-0.3779-0.6512-0.3779s-0.5177 0.1443-0.6512 0.3779l0.6512 0.3721zm5.1465-7.1028-0.1571-0.73335 0.1571 0.73335zm-1.8975 0.40663 0.1571 0.73335-0.1571-0.73335zm-6.498 0 0.15715-0.73335-0.15715 0.73335zm-1.8976-0.40662-0.15714 0.73335 0.15714-0.73335zm6.7224 9.8605-0.6512 0.3721 0.6512-0.3721zm1.4626-9.4091-0.1519-0.73445 0.1519 0.73445zm-6.0768 0-0.15192 0.73446 0.15192-0.73446zm6.3221 3.4183 0.394 0.6382-0.394-0.6382zm-0.4655 0.9864 0.7431-0.1016-0.7431 0.1016zm-6.102-0.9864-0.39395 0.6382 0.39395-0.6382zm0.46552 0.9864 0.74308 0.1016-0.74308-0.1016zm1.1636-3.4309c0.4119 0.04352 0.7811-0.25514 0.8246-0.66706s-0.2551-0.78112-0.667-0.82464l-0.1576 1.4917zm3.1516-1.4917c-0.4119 0.04352-0.7105 0.41272-0.667 0.82464s0.4127 0.71058 0.8246 0.66706l-0.1576-1.4917zm-7.6864 3.7301 2.1753 0.7251 0.47434-1.423-2.1753-0.7251-0.47435 1.423zm2.5062 1.4263-1.2468 3.2416 1.4 0.5385 1.2468-3.2417-1.4-0.5384zm9.3982-2.8493-2.1753 0.7251 0.4744 1.423 2.1753-0.7251-0.4744-1.423zm-3.4318 3.3877 1.2468 3.2417 1.4-0.5385-1.2468-3.2416-1.4 0.5384zm-3.2078 4.6043 1.5758-2.7577-1.3024-0.7442-1.5758 2.7577 1.3024 0.7442zm5.914-10.966-1.8976 0.40662 0.3143 1.4667 1.8976-0.40662-0.3143-1.4667zm-8.0812 0.40663-1.8976-0.40663-0.31429 1.4667 1.8976 0.40662 0.3143-1.4667zm2.4406 7.8016 1.5758 2.7577 1.3024-0.7442-1.5758-2.7577-1.3024 0.7442zm3.743-7.8016c-0.1065 0.02283-0.1562 0.03349-0.2053 0.04364l0.3038 1.4689c0.0555-0.01149 0.1113-0.02344 0.2158-0.04584l-0.3143-1.4667zm-6.4979 1.4667c0.10453 0.0224 0.16029 0.03435 0.21582 0.04584l0.30384-1.4689c-0.0491-0.01015-0.09885-0.02081-0.20536-0.04363l-0.3143 1.4667zm0.55119 10.213c0.79781 0 1.5344-0.4275 1.9303-1.1202l-1.3024-0.7442c-0.12877 0.2254-0.3684 0.3644-0.62793 0.3644v1.5zm6.3849-2.4828c0.1822 0.4737-0.1675 0.9828-0.6751 0.9828v1.5c1.5603 0 2.6352-1.5651 2.0751-3.0213l-1.4 0.5385zm0.0097-5.9043c-0.2219 0.074-0.4581 0.1474-0.6499 0.2657l0.7879 1.2765c-0.0089 0.0054-0.0014-0.0011 0.0565-0.023 0.0608-0.023 0.1428-0.0505 0.2799-0.0962l-0.4744-1.423zm0.1435 2.1242c-0.0519-0.1349-0.0828-0.2157-0.1037-0.2773-0.0199-0.0585-0.0196-0.0684-0.0182-0.0581l-1.4862 0.2032c0.0306 0.2233 0.1241 0.4523 0.2081 0.6706l1.4-0.5384zm-0.7934-1.8585c-0.5891 0.3637-0.9084 1.0404-0.8147 1.7263l1.4862-0.2032c-0.0134-0.098 0.0322-0.1947 0.1164-0.2466l-0.7879-1.2765zm3.3602-1.733c0 0.33676-0.2155 0.63574-0.535 0.74224l0.4744 1.423c0.932-0.3106 1.5606-1.1828 1.5606-2.1652h-1.5zm-11.18 6.8331c-0.56008 1.4562 0.51482 3.0213 2.075 3.0213v-1.5c-0.50755 0-0.85722-0.5091-0.67502-0.9828l-1.4-0.5385zm0.9159-3.9428c0.13709 0.0457 0.21909 0.0732 0.27991 0.0962 0.05788 0.0219 0.06532 0.0284 0.05647 0.023l0.7879-1.2765c-0.19178-0.1183-0.42801-0.1917-0.64994-0.2657l-0.47434 1.423zm1.7309 1.2396c0.08398-0.2183 0.17749-0.4473 0.20802-0.6706l-1.4862-0.2032c0.00141-0.0103 0.00172-5e-4 -0.01817 0.0581-0.02091 0.0616-0.05182 0.1424-0.1037 0.2773l1.4 0.5384zm-1.3945-1.1204c0.08416 0.0519 0.12978 0.1486 0.11638 0.2466l1.4862 0.2032c0.09375-0.6859-0.22556-1.3626-0.81465-1.7263l-0.7879 1.2765zm-4.0723-3.0095c0 0.98244 0.62863 1.8546 1.5606 2.1652l0.47435-1.423c-0.31948-0.1065-0.53497-0.40548-0.53497-0.74224h-1.5zm1.5 0c0-0.49809 0.45927-0.86937 0.94631-0.765l0.31429-1.4667c-1.4208-0.30445-2.7606 0.77865-2.7606 2.2317h1.5zm7.1746 8.7342c0.3959 0.6927 1.1325 1.1202 1.9303 1.1202v-1.5c-0.2595 0-0.4991-0.139-0.6279-0.3644l-1.3024 0.7442zm6.8254-8.7342c0-1.4531-1.3398-2.5362-2.7606-2.2317l0.3143 1.4667c0.487-0.10437 0.9463 0.26691 0.9463 0.765h1.5zm-9.247-1.5649c-0.4656-0.04918-0.92929-0.12136-1.3895-0.21655l-0.30384 1.4689c0.50862 0.1052 1.0212 0.18498 1.5357 0.23934l0.1576-1.4917zm4.3835-0.21655c-0.4602 0.09519-0.9239 0.16737-1.3895 0.21655l0.1576 1.4917c0.5146-0.05436 1.0271-0.13414 1.5357-0.23934l-0.3038-1.4689z"
    fill="#3f51b5"/>
  <path
    d="m19.454 15c1.5835 0.7961 2.5463 1.8475 2.5463 3 0 0.7484-0.406 1.4541-1.1242 2.0749m-16.329-5.0749c-1.5835 0.7961-2.5463 1.8475-2.5463 3 0 2.4853 4.4772 4.5 10 4.5 1.8214 0 3.5291-0.2191 5-0.602"
    stroke="#3f51b5" stroke-linecap="round" stroke-width="1.5"/>
</svg>
